<svg width="290" height="33" viewBox="0 0 290 33" fill="none" xmlns="http://www.w3.org/2000/svg">
<path d="M5.4 21.28C5.4 21.92 5.47467 22.4107 5.624 22.752C5.79467 23.072 6.136 23.296 6.648 23.424C7.16 23.552 7.928 23.616 8.952 23.616C9.016 23.616 9.048 23.68 9.048 23.808C9.048 23.936 9.016 24 8.952 24C8.26933 24 7.52267 23.9893 6.712 23.968C5.92267 23.9467 5.05867 23.936 4.12 23.936C3.416 23.936 2.72267 23.9467 2.04 23.968C1.37867 23.9893 0.781333 24 0.248 24C0.205333 24 0.184 23.936 0.184 23.808C0.184 23.68 0.205333 23.616 0.248 23.616C0.994667 23.616 1.54933 23.5627 1.912 23.456C2.296 23.3493 2.54133 23.136 2.648 22.816C2.776 22.496 2.84 22.0267 2.84 21.408V6.592C2.84 5.97333 2.776 5.51467 2.648 5.216C2.54133 4.896 2.296 4.68266 1.912 4.576C1.54933 4.448 0.994667 4.384 0.248 4.384C0.205333 4.384 0.184 4.32 0.184 4.192C0.184 4.064 0.205333 4 0.248 4C0.781333 4 1.37867 4.02133 2.04 4.064C2.70133 4.08533 3.384 4.096 4.088 4.096C4.64267 4.096 5.31467 4.064 6.104 4C6.91467 3.936 7.72533 3.904 8.536 3.904C9.77333 3.904 10.8827 4.08533 11.864 4.448C12.8667 4.81067 13.6667 5.376 14.264 6.144C14.8613 6.912 15.1707 7.91467 15.192 9.152C15.192 10.2613 14.9893 11.2213 14.584 12.032C14.1787 12.8427 13.624 13.5147 12.92 14.048C12.2373 14.5813 11.4693 14.976 10.616 15.232C9.784 15.488 8.96267 15.616 8.152 15.616C7.896 15.616 7.62933 15.6053 7.352 15.584C7.096 15.5627 6.85067 15.52 6.616 15.456C6.53067 15.4347 6.49867 15.36 6.52 15.232C6.56267 15.0827 6.616 15.0187 6.68 15.04C6.872 15.0827 7.064 15.1147 7.256 15.136C7.46933 15.1573 7.65067 15.168 7.8 15.168C8.61067 15.168 9.35733 14.976 10.04 14.592C10.7227 14.208 11.2773 13.6213 11.704 12.832C12.1307 12.0213 12.344 11.0187 12.344 9.824C12.344 8.672 12.1413 7.70133 11.736 6.912C11.352 6.12267 10.808 5.51467 10.104 5.088C9.4 4.66133 8.58933 4.448 7.672 4.448C7.07467 4.448 6.60533 4.49067 6.264 4.576C5.944 4.66133 5.72 4.864 5.592 5.184C5.464 5.504 5.4 5.99467 5.4 6.656V21.28ZM18.0368 24C17.9728 24 17.9408 23.936 17.9408 23.808C17.9408 23.68 17.9728 23.616 18.0368 23.616C18.8048 23.616 19.3168 23.4773 19.5728 23.2C19.8288 22.9013 19.9568 22.304 19.9568 21.408V15.52C19.9568 14.7733 19.8821 14.2293 19.7328 13.888C19.5834 13.5467 19.3168 13.376 18.9328 13.376C18.7621 13.376 18.5594 13.408 18.3248 13.472C18.1114 13.536 17.8554 13.6427 17.5568 13.792C17.4714 13.8133 17.3968 13.7707 17.3328 13.664C17.2901 13.536 17.3114 13.4507 17.3968 13.408L21.7488 11.392C21.8128 11.3707 21.8554 11.36 21.8768 11.36C21.9408 11.36 22.0048 11.392 22.0688 11.456C22.1541 11.52 22.1968 11.5947 22.1968 11.68C22.1968 11.872 22.1861 12.288 22.1648 12.928C22.1434 13.568 22.1328 14.4107 22.1328 15.456V21.408C22.1328 22.304 22.2501 22.9013 22.4848 23.2C22.7408 23.4773 23.2634 23.616 24.0528 23.616C24.1168 23.616 24.1488 23.68 24.1488 23.808C24.1488 23.936 24.1168 24 24.0528 24C23.6688 24 23.2101 23.9893 22.6768 23.968C22.1648 23.9467 21.6208 23.936 21.0448 23.936C20.4688 23.936 19.9248 23.9467 19.4128 23.968C18.9008 23.9893 18.4421 24 18.0368 24ZM20.8528 7.776C20.3621 7.776 19.9781 7.648 19.7008 7.392C19.4234 7.11467 19.2848 6.73067 19.2848 6.24C19.2848 5.77067 19.4234 5.408 19.7008 5.152C19.9781 4.896 20.3621 4.768 20.8528 4.768C21.3434 4.768 21.7168 4.896 21.9728 5.152C22.2288 5.408 22.3568 5.77067 22.3568 6.24C22.3568 7.264 21.8554 7.776 20.8528 7.776ZM32.5178 24.384C31.0458 24.384 29.8404 24.0747 28.9018 23.456C27.9844 22.816 27.3018 22.016 26.8538 21.056C26.4271 20.0747 26.2138 19.0827 26.2138 18.08C26.2138 17.0133 26.4271 16.064 26.8538 15.232C27.2804 14.4 27.8351 13.696 28.5178 13.12C29.2218 12.544 30.0004 12.1067 30.8538 11.808C31.7071 11.5093 32.5498 11.36 33.3818 11.36C33.9791 11.36 34.5658 11.4453 35.1418 11.616C35.7391 11.7867 36.2298 12.032 36.6138 12.352C36.9978 12.6507 37.1898 13.0133 37.1898 13.44C37.1898 13.7387 37.0724 14.016 36.8378 14.272C36.6244 14.5067 36.3044 14.624 35.8778 14.624C35.4724 14.624 35.1418 14.5067 34.8858 14.272C34.6298 14.0373 34.4271 13.7387 34.2778 13.376C34.0858 12.9493 33.8511 12.6187 33.5738 12.384C33.2964 12.128 32.8591 12 32.2618 12C31.1311 12 30.2458 12.4693 29.6058 13.408C28.9871 14.3467 28.6778 15.5733 28.6778 17.088C28.6778 18.1547 28.8591 19.1573 29.2218 20.096C29.5844 21.0133 30.1498 21.7493 30.9178 22.304C31.6858 22.8587 32.6884 23.136 33.9258 23.136C34.5231 23.136 35.0778 23.0613 35.5898 22.912C36.1231 22.7413 36.6351 22.4853 37.1258 22.144C37.1898 22.1013 37.2538 22.1227 37.3178 22.208C37.4031 22.2933 37.4138 22.3573 37.3498 22.4C36.6244 23.0613 35.8778 23.5627 35.1098 23.904C34.3418 24.224 33.4778 24.384 32.5178 24.384ZM44.359 24.384C43.847 24.384 43.3457 24.2987 42.855 24.128C42.3643 23.9787 41.959 23.7013 41.639 23.296C41.3403 22.8907 41.191 22.3467 41.191 21.664V14.272C41.191 13.7813 41.1483 13.408 41.063 13.152C40.9777 12.896 40.8177 12.7253 40.583 12.64C40.3483 12.5547 39.9963 12.512 39.527 12.512C39.463 12.512 39.431 12.4373 39.431 12.288C39.431 12.1173 39.463 12.032 39.527 12.032C40.4657 12.0107 41.223 11.7867 41.799 11.36C42.3963 10.912 42.7697 10.304 42.919 9.536C42.9403 9.472 43.0257 9.44 43.175 9.44C43.3243 9.44 43.399 9.472 43.399 9.536V20.576C43.399 21.4507 43.6123 22.0907 44.039 22.496C44.487 22.9013 45.095 23.104 45.863 23.104C46.3963 23.104 46.8763 23.008 47.303 22.816C47.751 22.624 48.1137 22.4213 48.391 22.208C48.4763 22.144 48.551 22.1653 48.615 22.272C48.7003 22.3573 48.7003 22.432 48.615 22.496C47.8257 23.1573 47.1003 23.6373 46.439 23.936C45.7777 24.2347 45.0843 24.384 44.359 24.384ZM47.655 13.216C46.8017 13.024 45.9803 12.896 45.191 12.832C44.4017 12.768 43.5697 12.736 42.695 12.736V12C43.5483 12 44.3697 11.968 45.159 11.904C45.9697 11.84 46.8337 11.7653 47.751 11.68C47.815 11.68 47.8683 11.7547 47.911 11.904C47.9537 12.0533 47.975 12.224 47.975 12.416C47.975 12.5867 47.943 12.768 47.879 12.96C47.815 13.152 47.7403 13.2373 47.655 13.216ZM55.1075 24.288C54.0195 24.288 53.1555 23.9467 52.5155 23.264C51.8968 22.56 51.5875 21.5893 51.5875 20.352V15.52C51.5875 14.7093 51.5128 14.1227 51.3635 13.76C51.2355 13.3973 50.9902 13.216 50.6275 13.216C50.3502 13.216 50.0195 13.312 49.6355 13.504C49.5502 13.5467 49.4755 13.504 49.4115 13.376C49.3688 13.248 49.3902 13.1733 49.4755 13.152L53.2515 11.392C53.2942 11.3707 53.3368 11.36 53.3795 11.36C53.4648 11.36 53.5502 11.392 53.6355 11.456C53.7208 11.52 53.7635 11.5947 53.7635 11.68V19.136C53.7635 20.3733 53.9768 21.2907 54.4035 21.888C54.8515 22.464 55.5235 22.752 56.4195 22.752C57.1875 22.752 57.9448 22.528 58.6915 22.08C59.4595 21.632 60.1102 21.0453 60.6435 20.32L60.8035 20.672C59.9075 21.8667 58.9902 22.7733 58.0515 23.392C57.1342 23.9893 56.1528 24.288 55.1075 24.288ZM62.2115 11.68V20.48C62.2115 21.2053 62.2862 21.728 62.4355 22.048C62.6062 22.368 62.8835 22.528 63.2675 22.528C63.4595 22.528 63.6728 22.496 63.9075 22.432C64.1635 22.3467 64.4728 22.2293 64.8355 22.08C64.9208 22.0373 64.9848 22.08 65.0275 22.208C65.0915 22.3147 65.0915 22.3893 65.0275 22.432L61.0595 24.32C61.0168 24.3413 60.9635 24.352 60.8995 24.352C60.7288 24.352 60.5368 24.1173 60.3235 23.648C60.1315 23.1573 60.0355 22.464 60.0355 21.568V15.52C60.0355 14.7093 59.9608 14.1227 59.8115 13.76C59.6622 13.3973 59.4168 13.216 59.0755 13.216C58.7982 13.216 58.4568 13.312 58.0515 13.504C57.9875 13.5467 57.9235 13.504 57.8595 13.376C57.8168 13.248 57.8382 13.1733 57.9235 13.152L61.6995 11.392C61.7422 11.3707 61.7848 11.36 61.8275 11.36C61.8915 11.36 61.9662 11.392 62.0515 11.456C62.1582 11.52 62.2115 11.5947 62.2115 11.68ZM69.8618 15.328L69.6698 14.976C70.4804 13.9947 71.1524 13.248 71.6858 12.736C72.2191 12.224 72.6778 11.872 73.0618 11.68C73.4458 11.4667 73.8084 11.36 74.1498 11.36C74.5978 11.36 75.0458 11.4987 75.4938 11.776C75.9418 12.0533 76.1658 12.4053 76.1658 12.832C76.1658 13.152 76.0591 13.4293 75.8458 13.664C75.6324 13.8773 75.3444 13.984 74.9818 13.984C74.6404 13.984 74.3631 13.888 74.1498 13.696C73.9578 13.504 73.7551 13.3227 73.5417 13.152C73.3498 12.96 73.0831 12.864 72.7418 12.864C72.5711 12.864 72.3791 12.9173 72.1658 13.024C71.9524 13.1307 71.6644 13.3653 71.3018 13.728C70.9604 14.0693 70.4804 14.6027 69.8618 15.328ZM66.4698 24C66.4058 24 66.3738 23.936 66.3738 23.808C66.3738 23.68 66.4058 23.616 66.4698 23.616C67.2378 23.616 67.7391 23.4773 67.9738 23.2C68.2298 22.9013 68.3578 22.304 68.3578 21.408V15.168C68.3578 14.4853 68.2724 13.984 68.1018 13.664C67.9524 13.344 67.6858 13.184 67.3018 13.184C67.0884 13.184 66.8431 13.2267 66.5658 13.312C66.2884 13.376 65.9684 13.4827 65.6058 13.632C65.5204 13.6747 65.4564 13.6427 65.4138 13.536C65.3711 13.408 65.3818 13.3227 65.4458 13.28L69.3818 11.392C69.4671 11.3707 69.5311 11.36 69.5738 11.36C69.7658 11.36 69.9791 11.5947 70.2138 12.064C70.4484 12.5333 70.5658 13.2053 70.5658 14.08V21.408C70.5658 22.0053 70.6404 22.464 70.7898 22.784C70.9604 23.104 71.2591 23.328 71.6858 23.456C72.1338 23.5627 72.7738 23.616 73.6058 23.616C73.6698 23.616 73.7018 23.68 73.7018 23.808C73.7018 23.936 73.6698 24 73.6058 24C73.0511 24 72.4218 23.9893 71.7178 23.968C71.0138 23.9467 70.2671 23.936 69.4778 23.936C68.9018 23.936 68.3471 23.9467 67.8138 23.968C67.3018 23.9893 66.8538 24 66.4698 24ZM83.7953 24.384C82.4726 24.384 81.3419 24.096 80.4033 23.52C79.4859 22.9227 78.7926 22.1547 78.3233 21.216C77.8753 20.2773 77.6513 19.2853 77.6513 18.24C77.6513 16.9387 77.9606 15.776 78.5793 14.752C79.1979 13.7067 80.0299 12.8853 81.0753 12.288C82.1419 11.6693 83.3366 11.36 84.6593 11.36C85.8753 11.36 86.8033 11.648 87.4433 12.224C88.1046 12.7787 88.4353 13.5467 88.4353 14.528C88.4353 14.7627 88.4139 14.9547 88.3713 15.104C88.3286 15.2533 88.2326 15.328 88.0833 15.328H85.8113C85.8966 14.304 85.7366 13.4933 85.3313 12.896C84.9259 12.2987 84.3286 12 83.5393 12C82.4513 12 81.6086 12.448 81.0113 13.344C80.4139 14.24 80.1153 15.4453 80.1153 16.96C80.1153 18.1547 80.3073 19.2213 80.6913 20.16C81.0753 21.0773 81.6406 21.8027 82.3873 22.336C83.1339 22.848 84.0299 23.104 85.0753 23.104C85.6299 23.104 86.1953 23.0293 86.7713 22.88C87.3473 22.7093 87.8806 22.4533 88.3713 22.112C88.4139 22.0693 88.4673 22.1013 88.5313 22.208C88.6166 22.2933 88.6379 22.368 88.5953 22.432C87.8273 23.136 87.0486 23.6373 86.2593 23.936C85.4699 24.2347 84.6486 24.384 83.7953 24.384ZM79.3793 15.392L79.3473 14.912L86.5473 14.752V15.328L79.3793 15.392ZM103.588 21.28C103.588 21.92 103.662 22.4107 103.812 22.752C103.982 23.072 104.324 23.296 104.836 23.424C105.348 23.552 106.116 23.616 107.14 23.616C107.204 23.616 107.236 23.68 107.236 23.808C107.236 23.936 107.204 24 107.14 24C106.457 24 105.71 23.9893 104.9 23.968C104.11 23.9467 103.246 23.936 102.308 23.936C101.604 23.936 100.91 23.9467 100.228 23.968C99.5662 23.9893 98.9688 24 98.4355 24C98.3928 24 98.3715 23.936 98.3715 23.808C98.3715 23.68 98.3928 23.616 98.4355 23.616C99.1822 23.616 99.7368 23.5627 100.1 23.456C100.484 23.3493 100.729 23.136 100.836 22.816C100.964 22.496 101.028 22.0267 101.028 21.408V6.592C101.028 5.97333 100.964 5.51467 100.836 5.216C100.729 4.896 100.484 4.68266 100.1 4.576C99.7368 4.448 99.1822 4.384 98.4355 4.384C98.3928 4.384 98.3715 4.32 98.3715 4.192C98.3715 4.064 98.3928 4 98.4355 4C98.9688 4 99.5662 4.02133 100.228 4.064C100.889 4.08533 101.572 4.096 102.276 4.096C102.83 4.096 103.502 4.064 104.292 4C105.102 3.936 105.913 3.904 106.724 3.904C107.961 3.904 109.07 4.08533 110.052 4.448C111.054 4.81067 111.854 5.376 112.452 6.144C113.049 6.912 113.358 7.91467 113.38 9.152C113.38 10.2613 113.177 11.2213 112.772 12.032C112.366 12.8427 111.812 13.5147 111.108 14.048C110.425 14.5813 109.657 14.976 108.804 15.232C107.972 15.488 107.15 15.616 106.34 15.616C106.084 15.616 105.817 15.6053 105.54 15.584C105.284 15.5627 105.038 15.52 104.804 15.456C104.718 15.4347 104.686 15.36 104.708 15.232C104.75 15.0827 104.804 15.0187 104.868 15.04C105.06 15.0827 105.252 15.1147 105.444 15.136C105.657 15.1573 105.838 15.168 105.988 15.168C106.798 15.168 107.545 14.976 108.228 14.592C108.91 14.208 109.465 13.6213 109.892 12.832C110.318 12.0213 110.532 11.0187 110.532 9.824C110.532 8.672 110.329 7.70133 109.924 6.912C109.54 6.12267 108.996 5.51467 108.292 5.088C107.588 4.66133 106.777 4.448 105.86 4.448C105.262 4.448 104.793 4.49067 104.452 4.576C104.132 4.66133 103.908 4.864 103.78 5.184C103.652 5.504 103.588 5.99467 103.588 6.656V21.28ZM121.17 24.384C119.848 24.384 118.717 24.096 117.778 23.52C116.861 22.9227 116.168 22.1547 115.698 21.216C115.25 20.2773 115.026 19.2853 115.026 18.24C115.026 16.9387 115.336 15.776 115.954 14.752C116.573 13.7067 117.405 12.8853 118.45 12.288C119.517 11.6693 120.712 11.36 122.034 11.36C123.25 11.36 124.178 11.648 124.818 12.224C125.48 12.7787 125.81 13.5467 125.81 14.528C125.81 14.7627 125.789 14.9547 125.746 15.104C125.704 15.2533 125.608 15.328 125.458 15.328H123.186C123.272 14.304 123.112 13.4933 122.706 12.896C122.301 12.2987 121.704 12 120.914 12C119.826 12 118.984 12.448 118.386 13.344C117.789 14.24 117.49 15.4453 117.49 16.96C117.49 18.1547 117.682 19.2213 118.066 20.16C118.45 21.0773 119.016 21.8027 119.762 22.336C120.509 22.848 121.405 23.104 122.45 23.104C123.005 23.104 123.57 23.0293 124.146 22.88C124.722 22.7093 125.256 22.4533 125.746 22.112C125.789 22.0693 125.842 22.1013 125.906 22.208C125.992 22.2933 126.013 22.368 125.97 22.432C125.202 23.136 124.424 23.6373 123.634 23.936C122.845 24.2347 122.024 24.384 121.17 24.384ZM116.754 15.392L116.722 14.912L123.922 14.752V15.328L116.754 15.392ZM131.831 15.328L131.639 14.976C132.449 13.9947 133.121 13.248 133.655 12.736C134.188 12.224 134.647 11.872 135.031 11.68C135.415 11.4667 135.777 11.36 136.119 11.36C136.567 11.36 137.015 11.4987 137.463 11.776C137.911 12.0533 138.135 12.4053 138.135 12.832C138.135 13.152 138.028 13.4293 137.815 13.664C137.601 13.8773 137.313 13.984 136.951 13.984C136.609 13.984 136.332 13.888 136.119 13.696C135.927 13.504 135.724 13.3227 135.51 13.152C135.319 12.96 135.052 12.864 134.711 12.864C134.54 12.864 134.348 12.9173 134.135 13.024C133.921 13.1307 133.633 13.3653 133.271 13.728C132.929 14.0693 132.449 14.6027 131.831 15.328ZM128.439 24C128.375 24 128.343 23.936 128.343 23.808C128.343 23.68 128.375 23.616 128.439 23.616C129.207 23.616 129.708 23.4773 129.943 23.2C130.199 22.9013 130.327 22.304 130.327 21.408V15.168C130.327 14.4853 130.241 13.984 130.071 13.664C129.921 13.344 129.655 13.184 129.271 13.184C129.057 13.184 128.812 13.2267 128.535 13.312C128.257 13.376 127.937 13.4827 127.575 13.632C127.489 13.6747 127.425 13.6427 127.383 13.536C127.34 13.408 127.351 13.3227 127.415 13.28L131.351 11.392C131.436 11.3707 131.5 11.36 131.543 11.36C131.735 11.36 131.948 11.5947 132.183 12.064C132.417 12.5333 132.535 13.2053 132.535 14.08V21.408C132.535 22.0053 132.609 22.464 132.759 22.784C132.929 23.104 133.228 23.328 133.655 23.456C134.103 23.5627 134.743 23.616 135.575 23.616C135.639 23.616 135.671 23.68 135.671 23.808C135.671 23.936 135.639 24 135.575 24C135.02 24 134.391 23.9893 133.687 23.968C132.983 23.9467 132.236 23.936 131.447 23.936C130.871 23.936 130.316 23.9467 129.783 23.968C129.271 23.9893 128.823 24 128.439 24ZM139.835 24C139.771 24 139.739 23.936 139.739 23.808C139.739 23.68 139.771 23.616 139.835 23.616C140.731 23.616 141.307 23.4773 141.563 23.2C141.819 22.9227 141.947 22.3253 141.947 21.408V14.208C141.947 13.696 141.894 13.3227 141.787 13.088C141.68 12.8533 141.467 12.704 141.147 12.64C140.827 12.5547 140.347 12.512 139.707 12.512C139.643 12.512 139.611 12.4373 139.611 12.288C139.611 12.1387 139.643 12.064 139.707 12.064C140.56 12.064 141.136 11.9573 141.435 11.744C141.734 11.5307 141.894 11.1573 141.915 10.624C142.022 7.08267 142.672 4.55467 143.867 3.04C145.083 1.52533 146.822 0.768 149.083 0.768C150.235 0.768 151.142 0.938666 151.803 1.28C152.486 1.6 152.827 2.016 152.827 2.528C152.827 2.912 152.688 3.21067 152.411 3.424C152.155 3.616 151.867 3.712 151.547 3.712C151.184 3.712 150.907 3.62667 150.715 3.456C150.523 3.264 150.32 3.01867 150.107 2.72C149.851 2.31467 149.563 1.99467 149.243 1.76C148.923 1.504 148.486 1.376 147.931 1.376C146.843 1.376 145.936 2.048 145.211 3.392C144.507 4.736 144.155 6.92267 144.155 9.952V21.408C144.155 22.0267 144.219 22.496 144.347 22.816C144.496 23.136 144.784 23.3493 145.211 23.456C145.659 23.5627 146.331 23.616 147.227 23.616C147.291 23.616 147.323 23.68 147.323 23.808C147.323 23.936 147.291 24 147.227 24C146.502 24 145.798 23.9893 145.115 23.968C144.432 23.9467 143.739 23.936 143.035 23.936C142.438 23.936 141.862 23.9467 141.307 23.968C140.774 23.9893 140.283 24 139.835 24ZM147.995 13.216C147.163 13.024 146.363 12.896 145.595 12.832C144.848 12.768 144.048 12.736 143.195 12.736V12C144.006 12 144.806 11.968 145.595 11.904C146.384 11.84 147.216 11.7653 148.091 11.68C148.155 11.68 148.208 11.7547 148.251 11.904C148.294 12.0533 148.315 12.224 148.315 12.416C148.315 12.5867 148.272 12.768 148.187 12.96C148.123 13.152 148.059 13.2373 147.995 13.216ZM155.889 24.384C154.566 24.384 153.436 24.096 152.497 23.52C151.58 22.9227 150.886 22.1547 150.417 21.216C149.969 20.2773 149.745 19.2853 149.745 18.24C149.745 16.9387 150.054 15.776 150.673 14.752C151.292 13.7067 152.124 12.8853 153.169 12.288C154.236 11.6693 155.43 11.36 156.753 11.36C157.969 11.36 158.897 11.648 159.537 12.224C160.198 12.7787 160.529 13.5467 160.529 14.528C160.529 14.7627 160.508 14.9547 160.465 15.104C160.422 15.2533 160.326 15.328 160.177 15.328H157.905C157.99 14.304 157.83 13.4933 157.425 12.896C157.02 12.2987 156.422 12 155.633 12C154.545 12 153.702 12.448 153.105 13.344C152.508 14.24 152.209 15.4453 152.209 16.96C152.209 18.1547 152.401 19.2213 152.785 20.16C153.169 21.0773 153.734 21.8027 154.481 22.336C155.228 22.848 156.124 23.104 157.169 23.104C157.724 23.104 158.289 23.0293 158.865 22.88C159.441 22.7093 159.974 22.4533 160.465 22.112C160.508 22.0693 160.561 22.1013 160.625 22.208C160.71 22.2933 160.732 22.368 160.689 22.432C159.921 23.136 159.142 23.6373 158.353 23.936C157.564 24.2347 156.742 24.384 155.889 24.384ZM151.473 15.392L151.441 14.912L158.641 14.752V15.328L151.473 15.392ZM169.018 24.384C167.546 24.384 166.34 24.0747 165.402 23.456C164.484 22.816 163.802 22.016 163.354 21.056C162.927 20.0747 162.714 19.0827 162.714 18.08C162.714 17.0133 162.927 16.064 163.354 15.232C163.78 14.4 164.335 13.696 165.018 13.12C165.722 12.544 166.5 12.1067 167.354 11.808C168.207 11.5093 169.05 11.36 169.882 11.36C170.479 11.36 171.066 11.4453 171.642 11.616C172.239 11.7867 172.73 12.032 173.114 12.352C173.498 12.6507 173.69 13.0133 173.69 13.44C173.69 13.7387 173.572 14.016 173.338 14.272C173.124 14.5067 172.804 14.624 172.378 14.624C171.972 14.624 171.642 14.5067 171.386 14.272C171.13 14.0373 170.927 13.7387 170.778 13.376C170.586 12.9493 170.351 12.6187 170.074 12.384C169.796 12.128 169.359 12 168.762 12C167.631 12 166.746 12.4693 166.106 13.408C165.487 14.3467 165.178 15.5733 165.178 17.088C165.178 18.1547 165.359 19.1573 165.722 20.096C166.084 21.0133 166.65 21.7493 167.418 22.304C168.186 22.8587 169.188 23.136 170.426 23.136C171.023 23.136 171.578 23.0613 172.09 22.912C172.623 22.7413 173.135 22.4853 173.626 22.144C173.69 22.1013 173.754 22.1227 173.818 22.208C173.903 22.2933 173.914 22.3573 173.85 22.4C173.124 23.0613 172.378 23.5627 171.61 23.904C170.842 24.224 169.978 24.384 169.018 24.384ZM180.859 24.384C180.347 24.384 179.846 24.2987 179.355 24.128C178.864 23.9787 178.459 23.7013 178.139 23.296C177.84 22.8907 177.691 22.3467 177.691 21.664V14.272C177.691 13.7813 177.648 13.408 177.563 13.152C177.478 12.896 177.318 12.7253 177.083 12.64C176.848 12.5547 176.496 12.512 176.027 12.512C175.963 12.512 175.931 12.4373 175.931 12.288C175.931 12.1173 175.963 12.032 176.027 12.032C176.966 12.0107 177.723 11.7867 178.299 11.36C178.896 10.912 179.27 10.304 179.419 9.536C179.44 9.472 179.526 9.44 179.675 9.44C179.824 9.44 179.899 9.472 179.899 9.536V20.576C179.899 21.4507 180.112 22.0907 180.539 22.496C180.987 22.9013 181.595 23.104 182.363 23.104C182.896 23.104 183.376 23.008 183.803 22.816C184.251 22.624 184.614 22.4213 184.891 22.208C184.976 22.144 185.051 22.1653 185.115 22.272C185.2 22.3573 185.2 22.432 185.115 22.496C184.326 23.1573 183.6 23.6373 182.939 23.936C182.278 24.2347 181.584 24.384 180.859 24.384ZM184.155 13.216C183.302 13.024 182.48 12.896 181.691 12.832C180.902 12.768 180.07 12.736 179.195 12.736V12C180.048 12 180.87 11.968 181.659 11.904C182.47 11.84 183.334 11.7653 184.251 11.68C184.315 11.68 184.368 11.7547 184.411 11.904C184.454 12.0533 184.475 12.224 184.475 12.416C184.475 12.5867 184.443 12.768 184.379 12.96C184.315 13.152 184.24 13.2373 184.155 13.216ZM202.308 4C202.372 4 202.404 4.064 202.404 4.192C202.404 4.32 202.372 4.384 202.308 4.384C201.689 4.384 201.22 4.448 200.9 4.576C200.58 4.704 200.366 4.928 200.26 5.248C200.153 5.568 200.1 6.03733 200.1 6.656V24.64C200.1 26.7947 199.588 28.5227 198.564 29.824C197.54 31.1253 196.046 31.776 194.084 31.776C193.337 31.776 192.739 31.6373 192.291 31.36C191.843 31.0827 191.619 30.7093 191.619 30.24C191.619 29.8987 191.726 29.6 191.939 29.344C192.131 29.1093 192.441 28.992 192.867 28.992C193.294 28.992 193.614 29.0987 193.828 29.312C194.062 29.5253 194.254 29.7707 194.404 30.048C194.553 30.3467 194.702 30.6027 194.852 30.816C195.022 31.0293 195.257 31.136 195.556 31.136C196.196 31.136 196.686 30.72 197.028 29.888C197.369 29.0773 197.54 27.7227 197.54 25.824V6.592C197.54 5.97333 197.465 5.51467 197.316 5.216C197.166 4.896 196.878 4.68266 196.452 4.576C196.025 4.448 195.385 4.384 194.532 4.384C194.489 4.384 194.468 4.32 194.468 4.192C194.468 4.064 194.489 4 194.532 4C195.172 4 195.844 4.02133 196.548 4.064C197.273 4.08533 198.02 4.096 198.788 4.096C199.492 4.096 200.132 4.08533 200.708 4.064C201.305 4.02133 201.838 4 202.308 4ZM210.519 24.416C209.217 24.416 208.087 24.1067 207.127 23.488C206.188 22.8693 205.463 22.048 204.951 21.024C204.439 19.9787 204.183 18.8587 204.183 17.664C204.183 16.5547 204.385 15.5947 204.791 14.784C205.217 13.9733 205.772 13.312 206.455 12.8C207.137 12.2667 207.884 11.872 208.695 11.616C209.505 11.36 210.305 11.232 211.095 11.232C212.417 11.232 213.548 11.552 214.487 12.192C215.425 12.832 216.14 13.6533 216.631 14.656C217.143 15.6587 217.399 16.7147 217.399 17.824C217.399 19.168 217.079 20.3413 216.439 21.344C215.799 22.3253 214.956 23.0827 213.911 23.616C212.887 24.1493 211.756 24.416 210.519 24.416ZM211.447 23.808C212.492 23.808 213.303 23.4027 213.879 22.592C214.476 21.76 214.775 20.5013 214.775 18.816C214.775 17.3867 214.561 16.16 214.135 15.136C213.708 14.0907 213.132 13.2907 212.407 12.736C211.703 12.16 210.903 11.872 210.007 11.872C208.961 11.872 208.151 12.2773 207.575 13.088C207.02 13.8773 206.743 15.0507 206.743 16.608C206.743 17.952 206.945 19.1787 207.351 20.288C207.756 21.376 208.311 22.24 209.015 22.88C209.719 23.4987 210.529 23.808 211.447 23.808ZM224.42 24.288C223.332 24.288 222.468 23.9467 221.828 23.264C221.209 22.56 220.9 21.5893 220.9 20.352V15.52C220.9 14.7093 220.825 14.1227 220.676 13.76C220.548 13.3973 220.303 13.216 219.94 13.216C219.663 13.216 219.332 13.312 218.948 13.504C218.863 13.5467 218.788 13.504 218.724 13.376C218.681 13.248 218.703 13.1733 218.788 13.152L222.564 11.392C222.607 11.3707 222.649 11.36 222.692 11.36C222.777 11.36 222.863 11.392 222.948 11.456C223.033 11.52 223.076 11.5947 223.076 11.68V19.136C223.076 20.3733 223.289 21.2907 223.716 21.888C224.164 22.464 224.836 22.752 225.732 22.752C226.5 22.752 227.257 22.528 228.004 22.08C228.772 21.632 229.423 21.0453 229.956 20.32L230.116 20.672C229.22 21.8667 228.303 22.7733 227.364 23.392C226.447 23.9893 225.465 24.288 224.42 24.288ZM231.524 11.68V20.48C231.524 21.2053 231.599 21.728 231.748 22.048C231.919 22.368 232.196 22.528 232.58 22.528C232.772 22.528 232.985 22.496 233.22 22.432C233.476 22.3467 233.785 22.2293 234.148 22.08C234.233 22.0373 234.297 22.08 234.34 22.208C234.404 22.3147 234.404 22.3893 234.34 22.432L230.372 24.32C230.329 24.3413 230.276 24.352 230.212 24.352C230.041 24.352 229.849 24.1173 229.636 23.648C229.444 23.1573 229.348 22.464 229.348 21.568V15.52C229.348 14.7093 229.273 14.1227 229.124 13.76C228.975 13.3973 228.729 13.216 228.388 13.216C228.111 13.216 227.769 13.312 227.364 13.504C227.3 13.5467 227.236 13.504 227.172 13.376C227.129 13.248 227.151 13.1733 227.236 13.152L231.012 11.392C231.055 11.3707 231.097 11.36 231.14 11.36C231.204 11.36 231.279 11.392 231.364 11.456C231.471 11.52 231.524 11.5947 231.524 11.68ZM239.174 15.328L238.982 14.976C239.793 13.9947 240.465 13.248 240.998 12.736C241.532 12.224 241.99 11.872 242.374 11.68C242.758 11.4667 243.121 11.36 243.462 11.36C243.91 11.36 244.358 11.4987 244.806 11.776C245.254 12.0533 245.478 12.4053 245.478 12.832C245.478 13.152 245.372 13.4293 245.158 13.664C244.945 13.8773 244.657 13.984 244.294 13.984C243.953 13.984 243.676 13.888 243.462 13.696C243.27 13.504 243.068 13.3227 242.854 13.152C242.662 12.96 242.396 12.864 242.054 12.864C241.884 12.864 241.692 12.9173 241.478 13.024C241.265 13.1307 240.977 13.3653 240.614 13.728C240.273 14.0693 239.793 14.6027 239.174 15.328ZM235.782 24C235.718 24 235.686 23.936 235.686 23.808C235.686 23.68 235.718 23.616 235.782 23.616C236.55 23.616 237.052 23.4773 237.286 23.2C237.542 22.9013 237.67 22.304 237.67 21.408V15.168C237.67 14.4853 237.585 13.984 237.414 13.664C237.265 13.344 236.998 13.184 236.614 13.184C236.401 13.184 236.156 13.2267 235.878 13.312C235.601 13.376 235.281 13.4827 234.918 13.632C234.833 13.6747 234.769 13.6427 234.726 13.536C234.684 13.408 234.694 13.3227 234.758 13.28L238.694 11.392C238.78 11.3707 238.844 11.36 238.886 11.36C239.078 11.36 239.292 11.5947 239.526 12.064C239.761 12.5333 239.878 13.2053 239.878 14.08V21.408C239.878 22.0053 239.953 22.464 240.102 22.784C240.273 23.104 240.572 23.328 240.998 23.456C241.446 23.5627 242.086 23.616 242.918 23.616C242.982 23.616 243.014 23.68 243.014 23.808C243.014 23.936 242.982 24 242.918 24C242.364 24 241.734 23.9893 241.03 23.968C240.326 23.9467 239.58 23.936 238.79 23.936C238.214 23.936 237.66 23.9467 237.126 23.968C236.614 23.9893 236.166 24 235.782 24ZM256.203 24C256.139 24 256.107 23.936 256.107 23.808C256.107 23.68 256.139 23.616 256.203 23.616C256.971 23.616 257.472 23.4773 257.707 23.2C257.963 22.9013 258.091 22.304 258.091 21.408V16.384C258.091 15.168 257.867 14.272 257.419 13.696C256.971 13.0987 256.256 12.8 255.275 12.8C254.528 12.8 253.771 13.024 253.003 13.472C252.256 13.8987 251.616 14.496 251.083 15.264L250.955 14.88C251.829 13.6853 252.725 12.7787 253.643 12.16C254.581 11.5413 255.563 11.232 256.587 11.232C257.76 11.232 258.667 11.5733 259.307 12.256C259.968 12.9387 260.299 13.9093 260.299 15.168V21.408C260.299 22.304 260.416 22.9013 260.651 23.2C260.907 23.4773 261.429 23.616 262.219 23.616C262.283 23.616 262.315 23.68 262.315 23.808C262.315 23.936 262.283 24 262.219 24C261.813 24 261.355 23.9893 260.843 23.968C260.331 23.9467 259.787 23.936 259.211 23.936C258.635 23.936 258.08 23.9467 257.547 23.968C257.035 23.9893 256.587 24 256.203 24ZM247.595 24C247.531 24 247.499 23.936 247.499 23.808C247.499 23.68 247.531 23.616 247.595 23.616C248.363 23.616 248.864 23.4773 249.099 23.2C249.355 22.9013 249.483 22.304 249.483 21.408V15.168C249.483 14.4853 249.397 13.984 249.227 13.664C249.077 13.344 248.811 13.184 248.427 13.184C248.213 13.184 247.968 13.2267 247.691 13.312C247.413 13.376 247.093 13.4827 246.731 13.632C246.645 13.6747 246.581 13.6427 246.539 13.536C246.496 13.408 246.507 13.3227 246.571 13.28L250.507 11.392C250.592 11.3707 250.656 11.36 250.699 11.36C250.891 11.36 251.104 11.5947 251.339 12.064C251.573 12.5333 251.691 13.2053 251.691 14.08V21.408C251.691 22.304 251.808 22.9013 252.043 23.2C252.299 23.4773 252.821 23.616 253.611 23.616C253.675 23.616 253.707 23.68 253.707 23.808C253.707 23.936 253.675 24 253.611 24C253.205 24 252.747 23.9893 252.235 23.968C251.723 23.9467 251.179 23.936 250.603 23.936C250.027 23.936 249.472 23.9467 248.939 23.968C248.427 23.9893 247.979 24 247.595 24ZM270.108 24.384C268.785 24.384 267.654 24.096 266.716 23.52C265.798 22.9227 265.105 22.1547 264.636 21.216C264.188 20.2773 263.964 19.2853 263.964 18.24C263.964 16.9387 264.273 15.776 264.892 14.752C265.51 13.7067 266.342 12.8853 267.388 12.288C268.454 11.6693 269.649 11.36 270.972 11.36C272.188 11.36 273.116 11.648 273.756 12.224C274.417 12.7787 274.748 13.5467 274.748 14.528C274.748 14.7627 274.726 14.9547 274.684 15.104C274.641 15.2533 274.545 15.328 274.396 15.328H272.124C272.209 14.304 272.049 13.4933 271.644 12.896C271.238 12.2987 270.641 12 269.852 12C268.764 12 267.921 12.448 267.324 13.344C266.726 14.24 266.428 15.4453 266.428 16.96C266.428 18.1547 266.62 19.2213 267.004 20.16C267.388 21.0773 267.953 21.8027 268.7 22.336C269.446 22.848 270.342 23.104 271.388 23.104C271.942 23.104 272.508 23.0293 273.084 22.88C273.66 22.7093 274.193 22.4533 274.684 22.112C274.726 22.0693 274.78 22.1013 274.844 22.208C274.929 22.2933 274.95 22.368 274.908 22.432C274.14 23.136 273.361 23.6373 272.572 23.936C271.782 24.2347 270.961 24.384 270.108 24.384ZM265.692 15.392L265.66 14.912L272.86 14.752V15.328L265.692 15.392ZM289.888 11.648C289.952 11.648 289.984 11.712 289.984 11.84C289.984 11.968 289.952 12.032 289.888 12.032C289.291 12.032 288.779 12.256 288.352 12.704C287.947 13.152 287.573 13.8453 287.232 14.784L283.424 24.896C282.656 26.944 281.92 28.5547 281.216 29.728C280.512 30.9227 279.787 31.7653 279.04 32.256C278.293 32.7467 277.472 32.992 276.576 32.992C276.085 32.992 275.68 32.8747 275.36 32.64C275.019 32.4267 274.848 32.096 274.848 31.648C274.848 31.264 274.965 30.976 275.2 30.784C275.435 30.6133 275.701 30.528 276 30.528C276.405 30.528 276.715 30.592 276.928 30.72C277.141 30.848 277.355 30.976 277.568 31.104C277.781 31.232 278.059 31.296 278.4 31.296C278.912 31.296 279.403 31.0613 279.872 30.592C280.341 30.1227 280.843 29.3227 281.376 28.192C281.909 27.0827 282.528 25.5573 283.232 23.616L283.2 24.8L278.016 14.304C277.547 13.3653 277.173 12.7573 276.896 12.48C276.64 12.1813 276.32 12.032 275.936 12.032C275.872 12.032 275.84 11.968 275.84 11.84C275.84 11.712 275.872 11.648 275.936 11.648C276.299 11.648 276.683 11.6587 277.088 11.68C277.493 11.7013 277.877 11.712 278.24 11.712C278.965 11.712 279.595 11.7013 280.128 11.68C280.683 11.6587 281.184 11.648 281.632 11.648C281.675 11.648 281.696 11.712 281.696 11.84C281.696 11.968 281.675 12.032 281.632 12.032C280.928 12.032 280.416 12.1173 280.096 12.288C279.797 12.4587 279.765 12.7893 280 13.28L284.32 22.08L283.424 23.584L286.464 14.848C286.805 13.8667 286.805 13.152 286.464 12.704C286.144 12.256 285.461 12.032 284.416 12.032C284.373 12.032 284.352 11.968 284.352 11.84C284.352 11.712 284.373 11.648 284.416 11.648C284.928 11.648 285.408 11.6587 285.856 11.68C286.325 11.7013 286.923 11.712 287.648 11.712C288.117 11.712 288.501 11.7013 288.8 11.68C289.12 11.6587 289.483 11.648 289.888 11.648Z" fill="white"/>
</svg>
