<svg width="50" height="32" viewBox="0 0 50 32" fill="none" xmlns="http://www.w3.org/2000/svg">
<path d="M7 0C3.15625 0 0 3.15625 0 7V25C0 28.8438 3.15625 32 7 32H32C35.8438 32 39 28.8438 39 25V23.4688L47.125 27.7812L47.1562 27.8125H47.2188C48.5117 28.3672 50 27.3672 50 26V6.09375C50 4.99609 49.1406 4.16406 48.1562 4.09375C47.8281 4.07031 47.4844 4.14844 47.1562 4.3125H47.125L39 8.5625V7C39 3.15625 35.8438 0 32 0H7ZM7 2H32C34.7539 2 37 4.24609 37 7V10.0312C36.9883 10.125 36.9883 10.2188 37 10.3125V21.6562C36.9883 21.75 36.9883 21.8438 37 21.9375V25C37 27.7539 34.7539 30 32 30H7C4.24609 30 2 27.7539 2 25V7C2 4.24609 4.24609 2 7 2ZM19.9062 3.96875C19.8633 3.97656 19.8203 3.98828 19.7812 4C19.3164 4.10547 18.9883 4.52344 19 5V7C18.9961 7.35938 19.1836 7.69531 19.4961 7.87891C19.8086 8.05859 20.1914 8.05859 20.5039 7.87891C20.8164 7.69531 21.0039 7.35938 21 7V5C21.0117 4.71094 20.8945 4.43359 20.6875 4.23828C20.4766 4.03906 20.1914 3.94141 19.9062 3.96875ZM48 6.125V26L39 21.1875V10.8125L48 6.125ZM12 7.1875C11.625 7.25391 11.3242 7.52734 11.2188 7.89062C11.1133 8.25781 11.2227 8.64844 11.5 8.90625L12.9062 10.3125C13.1484 10.6094 13.5352 10.7461 13.9102 10.6602C14.2812 10.5742 14.5742 10.2812 14.6602 9.91016C14.7461 9.53516 14.6094 9.14844 14.3125 8.90625L12.9062 7.5C12.6992 7.27734 12.3984 7.16406 12.0938 7.1875C12.0625 7.1875 12.0312 7.1875 12 7.1875ZM27.6875 7.1875C27.4609 7.21875 27.25 7.33203 27.0938 7.5L25.6875 8.90625C25.3906 9.14844 25.2539 9.53516 25.3398 9.91016C25.4258 10.2812 25.7188 10.5742 26.0898 10.6602C26.4648 10.7461 26.8516 10.6094 27.0938 10.3125L28.5 8.90625C28.8125 8.60938 28.9023 8.14453 28.7188 7.75391C28.5312 7.35938 28.1172 7.13281 27.6875 7.1875ZM20 9C16.1445 9 13 12.1445 13 16C13 19.8555 16.1445 23 20 23C23.8555 23 27 19.8555 27 16C27 12.1445 23.8555 9 20 9ZM20 11C22.7734 11 25 13.2266 25 16C25 18.7734 22.7734 21 20 21C17.2266 21 15 18.7734 15 16C15 13.2266 17.2266 11 20 11ZM8.71875 15C8.16797 15.0781 7.78125 15.5898 7.85938 16.1406C7.9375 16.6914 8.44922 17.0781 9 17H11C11.3594 17.0039 11.6953 16.8164 11.8789 16.5039C12.0586 16.1914 12.0586 15.8086 11.8789 15.4961C11.6953 15.1836 11.3594 14.9961 11 15H9C8.96875 15 8.9375 15 8.90625 15C8.875 15 8.84375 15 8.8125 15C8.78125 15 8.75 15 8.71875 15ZM28.7188 15C28.168 15.0781 27.7812 15.5898 27.8594 16.1406C27.9375 16.6914 28.4492 17.0781 29 17H31C31.3594 17.0039 31.6953 16.8164 31.8789 16.5039C32.0586 16.1914 32.0586 15.8086 31.8789 15.4961C31.6953 15.1836 31.3594 14.9961 31 15H29C28.9688 15 28.9375 15 28.9062 15C28.875 15 28.8438 15 28.8125 15C28.7812 15 28.75 15 28.7188 15ZM13.5 21.375C13.2734 21.4062 13.0625 21.5195 12.9062 21.6875L11.5 23.0938C11.2031 23.3359 11.0664 23.7227 11.1523 24.0977C11.2383 24.4688 11.5312 24.7617 11.9023 24.8477C12.2773 24.9336 12.6641 24.7969 12.9062 24.5L14.3125 23.0938C14.6094 22.8086 14.6992 22.3672 14.5391 21.9883C14.3828 21.6094 14.0039 21.3672 13.5938 21.375C13.5625 21.375 13.5312 21.375 13.5 21.375ZM26.1875 21.375C25.8125 21.4414 25.5117 21.7148 25.4062 22.0781C25.3008 22.4453 25.4102 22.8359 25.6875 23.0938L27.0938 24.5C27.3359 24.7969 27.7227 24.9336 28.0977 24.8477C28.4688 24.7617 28.7617 24.4688 28.8477 24.0977C28.9336 23.7227 28.7969 23.3359 28.5 23.0938L27.0938 21.6875C26.9062 21.4883 26.6484 21.3789 26.375 21.375C26.3438 21.375 26.3125 21.375 26.2812 21.375C26.25 21.375 26.2188 21.375 26.1875 21.375ZM19.9062 23.9688C19.8633 23.9766 19.8203 23.9883 19.7812 24C19.3164 24.1055 18.9883 24.5234 19 25V27C18.9961 27.3594 19.1836 27.6953 19.4961 27.8789C19.8086 28.0586 20.1914 28.0586 20.5039 27.8789C20.8164 27.6953 21.0039 27.3594 21 27V25C21.0117 24.7109 20.8945 24.4336 20.6875 24.2383C20.4766 24.0391 20.1914 23.9414 19.9062 23.9688Z" fill="#CCFF00"/>
</svg>
