<svg width="50" height="50" viewBox="0 0 50 50" fill="none" xmlns="http://www.w3.org/2000/svg">
<path d="M3.74998 1.99998C3.30466 2.06638 2.95701 2.42576 2.90623 2.87498L0.999977 20.0937C0.957008 20.5547 1.23435 20.9883 1.67576 21.1367C2.11326 21.2851 2.59763 21.1133 2.84373 20.7187L12.4375 5.43748C12.6054 5.16795 12.6367 4.83201 12.5195 4.53513C12.4023 4.24217 12.1523 4.01951 11.8437 3.93748L4.12498 2.03123C4.00388 1.99607 3.87498 1.98826 3.74998 1.99998ZM30.6562 1.99998C30.375 2.04295 30.125 2.1992 29.9687 2.43748L26.5 7.49998L21.5312 5.84373C21.1679 5.71092 20.7578 5.80076 20.4844 6.0781C20.207 6.35154 20.1172 6.7617 20.25 7.12498L22.0937 12.7187V16.4062C22.0976 16.7265 22.2539 17.0234 22.5117 17.207C22.7734 17.3945 23.1054 17.4414 23.4062 17.3437L28.8125 15.5312L34.2812 17.3437C34.6875 17.4804 35.1367 17.3476 35.3984 17.0078C35.6601 16.6679 35.6758 16.1992 35.4375 15.8437L31.8125 10.4375V2.99998C31.8164 2.70701 31.6914 2.42576 31.4648 2.23045C31.2422 2.03904 30.9492 1.9531 30.6562 1.99998ZM45.9375 1.99998C45.8633 2.0117 45.789 2.03513 45.7187 2.06248L36.125 5.87498C35.8594 5.98826 35.6523 6.21092 35.5625 6.48826C35.4726 6.7617 35.5078 7.06248 35.6562 7.31248L41.4375 16.9062C41.6406 17.2461 42.0234 17.4297 42.414 17.3828C42.8047 17.3359 43.1328 17.0625 43.25 16.6875L47.0625 3.28123C47.164 2.9492 47.0898 2.58592 46.8594 2.3242C46.6289 2.06248 46.2812 1.94138 45.9375 1.99998ZM4.78123 4.24998L10.0312 5.53123L3.46873 15.9375L4.78123 4.24998ZM44.5625 4.68748L41.9687 13.9062L37.9687 7.28123L44.5625 4.68748ZM29.8125 6.18748V10.6875C29.8086 10.8867 29.8633 11.082 29.9687 11.25L32.1562 14.5625L29.125 13.5625C28.914 13.4883 28.6797 13.4883 28.4687 13.5625L24.0937 15V12.5937C24.1015 12.4883 24.0898 12.3828 24.0625 12.2812L22.7812 8.37498L26.5937 9.65623C27.0156 9.78513 27.4765 9.62107 27.7187 9.24998L29.8125 6.18748ZM17.1875 15.4062C16.8242 15.4492 16.5117 15.6875 16.375 16.0312L12.75 25.125L3.71873 26.9062C3.30076 26.9687 2.96873 27.2851 2.88279 27.6953C2.80076 28.1094 2.98435 28.5312 3.34373 28.75L8.49998 32.0937L4.84373 42.875C4.71091 43.25 4.81248 43.6679 5.10545 43.9414C5.39842 44.2109 5.8242 44.2851 6.18748 44.125L15.1562 40.4687L20.5 45.8125C20.7578 46.0547 21.1211 46.1484 21.4609 46.0508C21.8008 45.9531 22.0664 45.6836 22.1562 45.3437L23.8437 38.5625L32.5 40.2812C32.8789 40.3594 33.2656 40.2148 33.5 39.9062C33.7344 39.6015 33.7695 39.1875 33.5937 38.8437L29.875 31.625L31.75 26.3437C31.8633 26.039 31.8164 25.6953 31.6328 25.4297C31.4453 25.1601 31.1406 25 30.8125 25H21.875L18.2187 16.0312C18.0547 15.6172 17.6328 15.3594 17.1875 15.4062ZM17.3125 19.0937L20.2812 26.375C20.4297 26.7461 20.789 26.9922 21.1875 27H29.375L27.8437 31.375C27.7578 31.6328 27.7812 31.914 27.9062 32.1562L30.875 37.9062L23.2812 36.4062C22.7578 36.3086 22.25 36.6367 22.125 37.1562L20.6562 43.1562L16.0937 38.5937C15.8125 38.3203 15.3984 38.2344 15.0312 38.375L7.46873 41.4687L10.6562 32.0312C10.8008 31.5976 10.6328 31.1211 10.25 30.875L6.46873 28.4062L13.6875 26.9687C14.0234 26.9101 14.3047 26.6875 14.4375 26.375L17.3125 19.0937ZM43.6875 25.0937C43.6445 25.1015 43.6015 25.1133 43.5625 25.125L39.25 26.2187C38.8984 26.3086 38.6211 26.5859 38.5312 26.9375L37.3437 31.3437C37.2461 31.6875 37.3437 32.0586 37.5937 32.3125L40.8125 35.4062C41.0664 35.6562 41.4375 35.7539 41.7812 35.6562L46.0625 34.4687C46.414 34.3789 46.6914 34.1015 46.7812 33.75L47.875 29.4375C47.9492 29.0976 47.8437 28.7422 47.5937 28.5L44.5 25.4062C44.2929 25.1836 43.9922 25.0703 43.6875 25.0937ZM43.5 27.2187L45.7812 29.5L45 32.6875L41.7812 33.5937L39.4062 31.2812L40.3125 28L43.5 27.2187ZM45.9375 38.3125C45.7773 38.3398 45.6289 38.4023 45.5 38.5L37.8125 44.3125C37.4961 44.5508 37.3515 44.9492 37.4375 45.3359C37.5234 45.7187 37.832 46.0156 38.2187 46.0937L47.8125 47.9687C48.1445 48.0312 48.4883 47.9219 48.7226 47.6758C48.957 47.4297 49.0469 47.0781 48.9687 46.75L47.0625 39.0625C46.9375 38.5586 46.4492 38.2344 45.9375 38.3125ZM45.5 41L46.6562 45.7187L40.7812 44.5625L45.5 41Z" fill="#CCFF00"/>
</svg>
