<svg width="46" height="41" viewBox="0 0 46 41" fill="none" xmlns="http://www.w3.org/2000/svg">
<path d="M13 0C5.85455 0 0 5.85455 0 13C0 27.7619 16.6784 35.0334 22.3594 39.7676L23 40.3008L23.6406 39.7676C29.3216 35.0334 46 27.7619 46 13C46 5.85455 40.1455 0 33 0C28.9403 0 25.3585 1.89031 23 4.84766C20.6415 1.89031 17.0597 0 13 0ZM13 2C16.8667 2 20.2387 3.92424 22.1562 6.9375L23 8.26172L23.8438 6.9375C25.7613 3.92424 29.1333 2 33 2C39.0545 2 44 6.94546 44 13C44 25.8877 29.5991 32.5721 23 37.7773C16.4009 32.5721 2 25.8877 2 13C2 6.94546 6.94545 2 13 2Z" fill="#CCFF00"/>
</svg>
