<svg width="50" height="50" viewBox="0 0 50 50" fill="none" xmlns="http://www.w3.org/2000/svg">
<path d="M28.9999 35.8C27.7999 36.8 24.9999 39.3 24.9999 39.3C24.9999 39.3 22.1999 36.8 20.9999 35.8C18.4999 33.7 15.8999 31.5 15.8999 28.2C15.8999 25.1 17.9999 23 20.8999 23C22.5999 23 24.0999 24.3 24.8999 25.1C25.6999 24.2 27.1999 23 28.8999 23C31.8999 23 33.8999 25.1 33.8999 28.2C33.9999 31.5 31.4999 33.7 28.9999 35.8Z" stroke="#CCFF00" stroke-width="2" stroke-miterlimit="10" stroke-linejoin="round"/>
<path d="M8.8 7H4.8C4.4 7 4 7.4 4 7.9V16H46V7.9C46 7.4 45.6 7 45.1 7H39" stroke="#CCFF00" stroke-width="2" stroke-miterlimit="10" stroke-linejoin="round"/>
<path d="M33 7H15" stroke="#CCFF00" stroke-width="2" stroke-miterlimit="10" stroke-linejoin="round"/>
<path d="M38 4H36C35.4 4 35 4.4 35 5V9C35 9.6 35.4 10 36 10H38C38.6 10 39 9.6 39 9V5C39 4.4 38.6 4 38 4Z" stroke="#CCFF00" stroke-width="2" stroke-miterlimit="10" stroke-linejoin="round"/>
<path d="M14 4H12C11.4 4 11 4.4 11 5V9C11 9.6 11.4 10 12 10H14C14.6 10 15 9.6 15 9V5C15 4.4 14.6 4 14 4Z" stroke="#CCFF00" stroke-width="2" stroke-miterlimit="10" stroke-linejoin="round"/>
<path d="M4 16V45.1C4 45.6 4.4 46 4.9 46H45.2C45.7 46 46.1 45.6 46.1 45.1V16H4Z" stroke="#CCFF00" stroke-width="2" stroke-miterlimit="10" stroke-linejoin="round"/>
<path d="M4 16V45.1C4 45.6 4.4 46 4.9 46H45.2C45.7 46 46.1 45.6 46.1 45.1V16H4Z" stroke="#CCFF00" stroke-width="2" stroke-miterlimit="10" stroke-linejoin="round"/>
</svg>
